ffmpeg version 3.4.8-0ubuntu0.2 Copyright (c) 2000-2020 the FFmpeg developers
  built with gcc 7 (Ubuntu 7.5.0-3ubuntu1~18.04)
  configuration: --prefix=/usr --extra-version=0ubuntu0.2 --toolchain=hardened --libdir=/usr/lib/x86_64-linux-gnu --incdir=/usr/include/x86_64-linux-gnu --enable-gpl --disable-stripping --enable-avresample --enable-avisynth --enable-gnutls --enable-ladspa --enable-libass --enable-libbluray --enable-libbs2b --enable-libcaca --enable-libcdio --enable-libflite --enable-libfontconfig --enable-libfreetype --enable-libfribidi --enable-libgme --enable-libgsm --enable-libmp3lame --enable-libmysofa --enable-libopenjpeg --enable-libopenmpt --enable-libopus --enable-libpulse --enable-librubberband --enable-librsvg --enable-libshine --enable-libsnappy --enable-libsoxr --enable-libspeex --enable-libssh --enable-libtheora --enable-libtwolame --enable-libvorbis --enable-libvpx --enable-libwavpack --enable-libwebp --enable-libx265 --enable-libxml2 --enable-libxvid --enable-libzmq --enable-libzvbi --enable-omx --enable-openal --enable-opengl --enable-sdl2 --enable-libdc1394 --enable-libdrm --enable-libiec61883 --enable-chromaprint --enable-frei0r --enable-libopencv --enable-libx264 --enable-shared
  libavutil      55. 78.100 / 55. 78.100
  libavcodec     57.107.100 / 57.107.100
  libavformat    57. 83.100 / 57. 83.100
  libavdevice    57. 10.100 / 57. 10.100
  libavfilter     6.107.100 /  6.107.100
  libavresample   3.  7.  0 /  3.  7.  0
  libswscale      4.  8.100 /  4.  8.100
  libswresample   2.  9.100 /  2.  9.100
  libpostproc    54.  7.100 / 54.  7.100
[rawvideo @ 0x55a5c34eea20] Estimating duration from bitrate, this may be inaccurate
Input #0, rawvideo, from '../../SVC-Encoder-20220109T061506Z-001/SVC-Encoder/Dataset/RollerCoaster/ERP_8x8/tile_yuv/Tile_16_480x240.yuv':
  Duration: 00:00:10.00, start: 0.000000, bitrate: 41472 kb/s
    Stream #0:0: Video: rawvideo (I420 / 0x30323449), yuv420p, 480x240, 41472 kb/s, 30 tbr, 30 tbn, 30 tbc
Stream mapping:
  Stream #0:0 -> #0:0 (rawvideo (native) -> h264 (libx264))
Press [q] to stop, [?] for help
[libx264 @ 0x55a5c34fbc60] using cpu capabilities: MMX2 SSE2Fast LZCNT SSSE3 SSE4.2 AVX
[libx264 @ 0x55a5c34fbc60] profile High, level 2.1
Output #0, rawvideo, to 'RollerCoaster_Tile_16_480x240_x264_QP_36.h264':
  Metadata:
    encoder         : Lavf57.83.100
    Stream #0:0: Video: h264 (libx264), yuv420p, 480x240, q=-1--1, 30 fps, 30 tbn, 30 tbc
    Metadata:
      encoder         : Lavc57.107.100 libx264
    Side data:
      cpb: bitrate max/min/avg: 0/0/0 buffer size: 0 vbv_delay: -1
frame=  300 fps=0.0 q=42.0 LPSNR=Y:inf U:inf V:inf *:inf size=      31kB time=00:00:09.93 bitrate=  25.9kbits/s speed=19.4x    
video:31kB audio:0kB subtitle:0kB other streams:0kB global headers:0kB muxing overhead: 0.000000%
[libx264 @ 0x55a5c34fbc60] frame I:2     Avg QP:33.96  size:  2566  PSNR Mean Y:38.13 U:44.89 V:47.65 Avg:39.55 Global:39.44
[libx264 @ 0x55a5c34fbc60] frame P:76    Avg QP:36.88  size:   197  PSNR Mean Y:37.27 U:44.56 V:47.21 Avg:38.73 Global:38.71
[libx264 @ 0x55a5c34fbc60] frame B:222   Avg QP:41.66  size:    54  PSNR Mean Y:37.02 U:44.51 V:47.20 Avg:38.49 Global:38.46
[libx264 @ 0x55a5c34fbc60] consecutive B-frames:  1.0%  0.7%  1.0% 97.3%
[libx264 @ 0x55a5c34fbc60] mb I  I16..4: 21.3% 71.8%  6.9%
[libx264 @ 0x55a5c34fbc60] mb P  I16..4:  0.1%  0.1%  0.0%  P16..4: 20.1%  0.9%  0.1%  0.0%  0.0%    skip:78.6%
[libx264 @ 0x55a5c34fbc60] mb B  I16..4:  0.0%  0.0%  0.0%  B16..8:  9.4%  0.0%  0.0%  direct: 0.0%  skip:90.6%  L0:39.1% L1:60.9% BI: 0.0%
[libx264 @ 0x55a5c34fbc60] 8x8 transform intra:70.1% inter:86.0%
[libx264 @ 0x55a5c34fbc60] coded y,uvDC,uvAC intra: 31.1% 25.9% 0.9% inter: 0.4% 0.3% 0.0%
[libx264 @ 0x55a5c34fbc60] i16 v,h,dc,p: 18% 42% 13% 26%
[libx264 @ 0x55a5c34fbc60] i8 v,h,dc,ddl,ddr,vr,hd,vl,hu:  3% 33% 42%  2%  4%  2%  9%  2%  4%
[libx264 @ 0x55a5c34fbc60] i4 v,h,dc,ddl,ddr,vr,hd,vl,hu:  5% 30% 39%  1%  4%  2%  9%  2%  8%
[libx264 @ 0x55a5c34fbc60] i8c dc,h,v,p: 75% 19%  4%  2%
[libx264 @ 0x55a5c34fbc60] Weighted P-Frames: Y:0.0% UV:0.0%
[libx264 @ 0x55a5c34fbc60] ref P L0: 62.7% 15.1% 16.8%  5.5%
[libx264 @ 0x55a5c34fbc60] ref B L0: 58.4% 33.9%  7.7%
[libx264 @ 0x55a5c34fbc60] ref B L1: 71.7% 28.3%
[libx264 @ 0x55a5c34fbc60] PSNR Mean Y:37.092 U:44.529 V:47.203 Avg:38.560 Global:38.530 kb/s:25.74
